<svg width="1280" height="1280" xmlns="http://www.w3.org/2000/svg" xmlns:xlink="http://www.w3.org/1999/xlink" overflow="hidden"><defs><clipPath id="clip0"><rect x="0" y="0" width="1280" height="1280"/></clipPath></defs><g clip-path="url(#clip0)"><rect x="552" y="735" width="58" height="96" fill="#C9C9C9"/><path d="M263 305.331C263 298.521 268.521 293 275.331 293L886.669 293C893.479 293 899 298.521 899 305.331L899 732.669C899 739.479 893.479 745 886.669 745L275.331 745C268.521 745 263 739.479 263 732.669Z" fill="#A5A5A5" fill-rule="evenodd"/><path d="M510 816C510 807.716 516.716 801 525 801L637 801C645.284 801 652 807.716 652 816L652 816C652 824.284 645.284 831 637 831L525 831C516.716 831 510 824.284 510 816Z" fill="#A5A5A5" fill-rule="evenodd"/><path d="M302 333.694C302 327.788 306.788 323 312.694 323L848.306 323C854.212 323 859 327.788 859 333.694L859 704.307C859 710.212 854.212 715 848.306 715L312.694 715C306.788 715 302 710.212 302 704.307Z" fill="#FFFFFF" fill-rule="evenodd"/><path d="M597.5 701 564.5 701C557.596 701 552 695.404 552 688.5L552 676 610 676 610 688.5C610 695.404 604.404 701 597.5 701Z" fill="#5A813F" fill-rule="evenodd"/><path d="M358 668.886 358 364.114C358 354.11 366.11 346 376.114 346L581 346 581 687 376.114 687C366.11 687 358 678.89 358 668.886Z" fill="#BFEA9E" fill-rule="evenodd"/><path d="M18.1143 0 322.886 0C332.89-2.71337e-15 341 8.11006 341 18.1143L341 223 0 223 0 18.1143C-2.71337e-15 8.11006 8.11006 0 18.1143 0Z" fill="#A9C48C" fill-rule="evenodd" transform="matrix(-6.12323e-17 -1 -1 6.12323e-17 804 687)"/><path d="M375 655.267 375 373.733C375 364.492 382.492 357 391.733 357L580.997 357 580.997 672 391.733 672C382.492 672 375 664.508 375 655.267Z" fill="#FFFFFF" fill-rule="evenodd"/><path d="M16.7332 0 298.267 0C307.508-2.50648e-15 315 7.4917 315 16.7332L315 205.997 0 205.997 0 16.7332C-2.50648e-15 7.4917 7.49169 0 16.7332 0Z" fill="#F2F2F2" fill-rule="evenodd" transform="matrix(-6.12323e-17 -1 -1 6.12323e-17 787 672)"/><path d="M205.811 366.941C210.726 374.259 267.008 345.064 331.521 301.733 396.034 258.402 444.348 217.344 439.434 210.027L492.826 289.521C497.741 296.838 449.427 337.896 384.914 381.227 320.401 424.557 264.119 453.752 259.204 446.435Z" fill="#57CDCA" fill-rule="evenodd"/><path d="M205.811 366.941C200.897 359.624 249.211 318.566 313.724 275.235 378.237 231.905 434.519 202.71 439.434 210.027 444.348 217.344 396.034 258.402 331.521 301.733 267.008 345.064 210.726 374.259 205.811 366.941Z" fill="#9AE1DF" fill-rule="evenodd"/><path d="M0 44.6065 263.824 0 527.647 44.6065 263.824 89.213Z" fill="#9AE1DF" fill-rule="evenodd" transform="matrix(0.826566 -0.56284 -0.56284 -0.826566 129.969 475.781)"/><path d="M260.639 279.273C281.454 262.857 311.636 266.423 328.052 287.239" stroke="#000000" stroke-width="14.6667" stroke-linecap="round" stroke-linejoin="round" stroke-miterlimit="10" fill="none" fill-rule="evenodd"/><path d="M382.009 982C373.167 982 366 974.833 366 965.991L366 857.009C366 848.168 373.167 841 382.009 841L785.991 841C794.832 841 802 848.168 802 857.009L802 965.991C802 974.833 794.832 982 785.991 982Z" fill="#7F7F7F" fill-rule="evenodd"/><path d="M384.276 885C380.81 885 378 882.19 378 878.724L378 860.276C378 856.81 380.81 854 384.276 854L408.724 854C412.19 854 415 856.81 415 860.276L415 878.724C415 882.19 412.19 885 408.724 885Z" fill="#E7E6E6" fill-rule="evenodd"/><path d="M431.276 885C427.81 885 425 882.19 425 878.724L425 860.276C425 856.81 427.81 854 431.276 854L455.724 854C459.19 854 462 856.81 462 860.276L462 878.724C462 882.19 459.19 885 455.724 885Z" fill="#E7E6E6" fill-rule="evenodd"/><path d="M477.276 885C473.81 885 471 882.19 471 878.724L471 860.276C471 856.81 473.81 854 477.276 854L502.724 854C506.19 854 509 856.81 509 860.276L509 878.724C509 882.19 506.19 885 502.724 885Z" fill="#E7E6E6" fill-rule="evenodd"/><path d="M524.276 885C520.81 885 518 882.19 518 878.724L518 860.276C518 856.81 520.81 854 524.276 854L548.724 854C552.19 854 555 856.81 555 860.276L555 878.724C555 882.19 552.19 885 548.724 885Z" fill="#E7E6E6" fill-rule="evenodd"/><path d="M571.276 885C567.81 885 565 882.19 565 878.724L565 860.276C565 856.81 567.81 854 571.276 854L595.724 854C599.19 854 602 856.81 602 860.276L602 878.724C602 882.19 599.19 885 595.724 885Z" fill="#E7E6E6" fill-rule="evenodd"/><path d="M618.276 885C614.81 885 612 882.19 612 878.724L612 860.276C612 856.81 614.81 854 618.276 854L642.724 854C646.19 854 649 856.81 649 860.276L649 878.724C649 882.19 646.19 885 642.724 885Z" fill="#E7E6E6" fill-rule="evenodd"/><path d="M665.276 885C661.81 885 659 882.19 659 878.724L659 860.276C659 856.81 661.81 854 665.276 854L689.724 854C693.19 854 696 856.81 696 860.276L696 878.724C696 882.19 693.19 885 689.724 885Z" fill="#E7E6E6" fill-rule="evenodd"/><path d="M711.276 885C707.81 885 705 882.19 705 878.724L705 860.276C705 856.81 707.81 854 711.276 854L736.724 854C740.19 854 743 856.81 743 860.276L743 878.724C743 882.19 740.19 885 736.724 885Z" fill="#E7E6E6" fill-rule="evenodd"/><path d="M758.276 885C754.81 885 752 882.19 752 878.724L752 860.276C752 856.81 754.81 854 758.276 854L782.724 854C786.19 854 789 856.81 789 860.276L789 878.724C789 882.19 786.19 885 782.724 885Z" fill="#E7E6E6" fill-rule="evenodd"/><path d="M384.276 927C380.81 927 378 924.19 378 920.724L378 902.276C378 898.81 380.81 896 384.276 896L408.724 896C412.19 896 415 898.81 415 902.276L415 920.724C415 924.19 412.19 927 408.724 927Z" fill="#E7E6E6" fill-rule="evenodd"/><path d="M431.276 927C427.81 927 425 924.19 425 920.724L425 902.276C425 898.81 427.81 896 431.276 896L455.724 896C459.19 896 462 898.81 462 902.276L462 920.724C462 924.19 459.19 927 455.724 927Z" fill="#E7E6E6" fill-rule="evenodd"/><path d="M477.276 927C473.81 927 471 924.19 471 920.724L471 902.276C471 898.81 473.81 896 477.276 896L502.724 896C506.19 896 509 898.81 509 902.276L509 920.724C509 924.19 506.19 927 502.724 927Z" fill="#E7E6E6" fill-rule="evenodd"/><path d="M524.276 927C520.81 927 518 924.19 518 920.724L518 902.276C518 898.81 520.81 896 524.276 896L548.724 896C552.19 896 555 898.81 555 902.276L555 920.724C555 924.19 552.19 927 548.724 927Z" fill="#E7E6E6" fill-rule="evenodd"/><path d="M571.276 927C567.81 927 565 924.19 565 920.724L565 902.276C565 898.81 567.81 896 571.276 896L595.724 896C599.19 896 602 898.81 602 902.276L602 920.724C602 924.19 599.19 927 595.724 927Z" fill="#E7E6E6" fill-rule="evenodd"/><path d="M618.276 927C614.81 927 612 924.19 612 920.724L612 902.276C612 898.81 614.81 896 618.276 896L642.724 896C646.19 896 649 898.81 649 902.276L649 920.724C649 924.19 646.19 927 642.724 927Z" fill="#E7E6E6" fill-rule="evenodd"/><path d="M665.276 927C661.81 927 659 924.19 659 920.724L659 902.276C659 898.81 661.81 896 665.276 896L689.724 896C693.19 896 696 898.81 696 902.276L696 920.724C696 924.19 693.19 927 689.724 927Z" fill="#E7E6E6" fill-rule="evenodd"/><path d="M711.276 927C707.81 927 705 924.19 705 920.724L705 902.276C705 898.81 707.81 896 711.276 896L736.724 896C740.19 896 743 898.81 743 902.276L743 920.724C743 924.19 740.19 927 736.724 927Z" fill="#E7E6E6" fill-rule="evenodd"/><path d="M758.276 927C754.81 927 752 924.19 752 920.724L752 902.276C752 898.81 754.81 896 758.276 896L782.724 896C786.19 896 789 898.81 789 902.276L789 920.724C789 924.19 786.19 927 782.724 927Z" fill="#E7E6E6" fill-rule="evenodd"/><path d="M384.276 969C380.81 969 378 966.19 378 962.724L378 944.276C378 940.81 380.81 938 384.276 938L408.724 938C412.19 938 415 940.81 415 944.276L415 962.724C415 966.19 412.19 969 408.724 969Z" fill="#E7E6E6" fill-rule="evenodd"/><path d="M431.276 969C427.81 969 425 966.19 425 962.724L425 944.276C425 940.81 427.81 938 431.276 938L455.724 938C459.19 938 462 940.81 462 944.276L462 962.724C462 966.19 459.19 969 455.724 969Z" fill="#E7E6E6" fill-rule="evenodd"/><path d="M477.276 969C473.81 969 471 966.19 471 962.724L471 944.276C471 940.81 473.81 938 477.276 938L502.724 938C506.19 938 509 940.81 509 944.276L509 962.724C509 966.19 506.19 969 502.724 969Z" fill="#E7E6E6" fill-rule="evenodd"/><path d="M524.276 969C520.81 969 518 966.19 518 962.724L518 944.276C518 940.81 520.81 938 524.276 938L548.724 938C552.19 938 555 940.81 555 944.276L555 962.724C555 966.19 552.19 969 548.724 969Z" fill="#E7E6E6" fill-rule="evenodd"/><path d="M571.276 969C567.81 969 565 966.19 565 962.724L565 944.276C565 940.81 567.81 938 571.276 938L595.724 938C599.19 938 602 940.81 602 944.276L602 962.724C602 966.19 599.19 969 595.724 969Z" fill="#E7E6E6" fill-rule="evenodd"/><path d="M618.276 969C614.81 969 612 966.19 612 962.724L612 944.276C612 940.81 614.81 938 618.276 938L642.724 938C646.19 938 649 940.81 649 944.276L649 962.724C649 966.19 646.19 969 642.724 969Z" fill="#E7E6E6" fill-rule="evenodd"/><path d="M665.276 969C661.81 969 659 966.19 659 962.724L659 944.276C659 940.81 661.81 938 665.276 938L689.724 938C693.19 938 696 940.81 696 944.276L696 962.724C696 966.19 693.19 969 689.724 969Z" fill="#E7E6E6" fill-rule="evenodd"/><path d="M711.276 969C707.81 969 705 966.19 705 962.724L705 944.276C705 940.81 707.81 938 711.276 938L736.724 938C740.19 938 743 940.81 743 944.276L743 962.724C743 966.19 740.19 969 736.724 969Z" fill="#E7E6E6" fill-rule="evenodd"/><path d="M758.276 969C754.81 969 752 966.19 752 962.724L752 944.276C752 940.81 754.81 938 758.276 938L782.724 938C786.19 938 789 940.81 789 944.276L789 962.724C789 966.19 786.19 969 782.724 969Z" fill="#E7E6E6" fill-rule="evenodd"/></g></svg>
